<svg width="1920" height="792" viewBox="0 0 1920 792" fill="none" xmlns="http://www.w3.org/2000/svg">
<path fill-rule="evenodd" clip-rule="evenodd" d="M1944.51 5.68032C2101.16 -22.7257 2252.48 63.7441 2412.63 81.3125C2622.03 104.285 2878.18 32.6047 3038.74 125.722C3192.18 214.705 3194.06 384.932 3169.06 520.003C3145.59 646.813 2987.29 739.923 2903.82 854.767C2845.42 935.109 2763.82 1009.86 2748.46 1098.66C2721.68 1253.49 2923.92 1437.38 2781.75 1560.62C2660.56 1665.66 2392.79 1584.31 2195.07 1578.36C2029.77 1573.38 1874.53 1538.73 1709.79 1528.34C1524.75 1516.67 1279.59 1607.81 1158.81 1513C1021.76 1405.42 1210.82 1229.53 1155.18 1092.99C1116.64 998.428 909.373 958.691 893.224 861.256C877.098 763.953 1024.77 689.401 1072.98 596.999C1120.03 506.808 1077.77 391.798 1174.66 321.783C1271.79 251.589 1455.15 282.847 1576.9 232.854C1720.55 173.87 1781.94 35.1589 1944.51 5.68032Z" fill="black" fill-opacity="0.5"/>
<path fill-rule="evenodd" clip-rule="evenodd" d="M191.537 663.511C230.101 697.631 260.82 735.141 290.131 777.475C324.236 826.733 368.999 870.755 376.208 930.232C384.731 1000.55 378.542 1078.59 333.224 1133.03C286.731 1188.89 210.378 1217.59 137.71 1216.75C70.6066 1215.98 19.6014 1163.41 -37.8743 1128.77C-89.4533 1097.68 -142.075 1071.52 -180.371 1025.05C-226.946 968.518 -298.426 905.981 -279.798 835.146C-260.769 762.79 -151.643 765.157 -98.2431 712.755C-46.9323 662.404 -49.5433 551.691 21.33 539.647C92.2423 527.597 137.667 615.848 191.537 663.511Z" fill="#111C43" fill-opacity="0.5"/>
</svg>
